<?xml version="1.0" encoding="UTF-8"?>
<svg width="512" height="512" version="1.1" viewBox="0 0 135.5 135.5" xmlns="http://www.w3.org/2000/svg">
 <title>icon</title>
 <g display="none">
  <rect width="135.5" height="135.5" fill="#007a66" stroke-width=".2646"/>
 </g>
 <g>
  <path d="m69.13 26.28c34.7 1.777 39.94 32.65 40.41 42.84s-7.232 45.07-43.03 40.88c-35.81-4.188-41.04-36.05-41.81-41.63-1.987-14.25 11.23-43.4 44.43-42.09z" fill="#fff"/>
  <path d="m69.35 21.79c38.42 1.967 44.22 36.14 44.73 47.43 0.5178 11.29-8.006 49.89-47.63 45.25-39.64-4.636-45.42-39.9-46.29-46.08-2.199-15.77 12.43-48.04 49.19-46.6z" fill="#830000"/>
  <path d="m69.13 26.29c34.7 1.777 39.94 32.65 40.41 42.84s-7.232 45.07-43.03 40.88c-35.81-4.188-41.04-36.05-41.81-41.63-1.987-14.25 11.23-43.4 44.43-42.09z" fill="none" stroke="#fff" stroke-width="3.175"/>
  <g fill="#fff">
   <g stroke="#830000" stroke-linejoin="round" stroke-width="5.821">
    <path d="m98.91 83.52c-2.181 2.615-2.336 5.827-1.769 8.364 0.2833 1.269 0.7363 2.4 1.238 3.324 0.5021 0.9247 0.9691 1.623 1.699 2.166 0.5446 0.4051 1.439 0.5081 2.005 0.322 0.566-0.1861 0.8968-0.4759 1.194-0.7472 0.5934-0.5425 1.053-1.135 1.532-1.617 0.4786-0.4824 0.9377-0.803 1.238-0.8949 0.3008-0.09186 0.4828-0.1386 1.1 0.2781 0.6846 0.4625 0.8686 0.8043 0.9473 1.142 0.0786 0.3377 0.0349 0.8139-0.2502 1.489-0.5702 1.349-2.101 3.222-3.813 5.112-1.657 1.829-3.093 2.958-3.996 3.341-0.4515 0.1912-0.7268 0.2037-0.894 0.1743-0.1672-0.0294-0.3022-0.0817-0.5432-0.3541-0.5007-0.5661-0.6952-1.365-0.565-2.308 0.1303-0.9423 0.6217-1.951 1.29-2.627 0.5521-0.5587 0.8064-1.397 0.756-2.092-0.0503-0.6946-0.3097-1.278-0.6442-1.806-0.6689-1.057-1.695-1.952-2.958-2.66-2.525-1.416-6.294-1.978-9.297 0.4893l2.017 2.454c1.833-1.506 3.995-1.144 5.728-0.1728 0.8665 0.4858 1.55 1.149 1.828 1.587 0.1008 0.1593 0.1034 0.2023 0.1167 0.245-1.053 1.165-1.766 2.607-1.979 4.148-0.2285 1.653 0.1117 3.466 1.331 4.844 0.6189 0.6998 1.457 1.218 2.372 1.379 0.9152 0.1606 1.832-0.0177 2.682-0.3779 1.701-0.7204 3.304-2.138 5.111-4.133 1.752-1.934 3.482-3.875 4.384-6.008 0.4507-1.066 0.6973-2.248 0.4185-3.445-0.2788-1.197-1.099-2.266-2.262-3.052-1.231-0.8314-2.668-1.032-3.805-0.6848-1.136 0.347-1.932 1.057-2.564 1.695-0.4599 0.4636-0.7436 0.7876-1.032 1.098-0.1474-0.1943-0.1939-0.2043-0.3538-0.4988-0.3631-0.6687-0.719-1.552-0.931-2.502-0.4239-1.899-0.3109-3.935 1.109-5.638z" color="#000000" style="paint-order:stroke markers fill"/>
    <path d="m75.12 102.2c-3.393 0.2913-5.783 2.442-7.187 4.631-0.7018 1.094-1.186 2.212-1.49 3.22-0.3034 1.008-0.4707 1.831-0.3425 2.732 0.09559 0.672 0.6517 1.38 1.182 1.651 0.5306 0.271 0.9693 0.302 1.371 0.3219 0.803 0.0397 1.547-0.0505 2.227-0.0501 0.6795 3.9e-4 1.23 0.1008 1.507 0.2498 0.2769 0.149 0.4383 0.2454 0.5765 0.9769 0.1534 0.8118 0.04012 1.183-0.1444 1.477-0.1846 0.2935-0.5535 0.5977-1.233 0.87-1.36 0.5447-3.767 0.7752-6.315 0.8896-2.466 0.1106-4.279-0.1152-5.186-0.4874-0.4536-0.1861-0.6562-0.3729-0.7531-0.5124-0.09683-0.1395-0.1547-0.2722-0.1308-0.6351 0.0497-0.7542 0.4804-1.455 1.241-2.026 0.761-0.5708 1.823-0.9317 2.774-0.933 0.7855-1e-3 1.56-0.4107 2.018-0.9354 0.458-0.5247 0.6895-1.119 0.8294-1.729 0.2799-1.219 0.1936-2.578-0.1923-3.973-0.7718-2.79-3.025-5.863-6.892-6.26l-0.3237 3.16c2.36 0.2421 3.625 2.032 4.154 3.947 0.2648 0.9574 0.275 1.909 0.1588 2.415-0.04216 0.1838-0.0709 0.2158-0.09187 0.2554-1.569 0.0726-3.095 0.5803-4.34 1.513-1.335 1.001-2.384 2.519-2.505 4.355-0.06143 0.9322 0.1603 1.892 0.6904 2.656 0.5301 0.7632 1.302 1.289 2.156 1.639 1.709 0.7012 3.844 0.8418 6.533 0.7212 2.607-0.117 5.204-0.2539 7.353-1.115 1.075-0.4305 2.087-1.087 2.741-2.127 0.6541-1.041 0.8361-2.376 0.5755-3.755-0.2757-1.459-1.145-2.622-2.192-3.185-1.046-0.5628-2.11-0.628-3.009-0.6286-0.6531-3.3e-4 -1.083 0.0262-1.506 0.04 0.03427-0.2415 0.0087-0.2816 0.1053-0.6023 0.2194-0.7286 0.5967-1.603 1.122-2.422 1.05-1.638 2.576-2.991 4.786-3.18z" color="#000000" style="paint-order:stroke markers fill"/>
    <path d="m45.91 94.31c-2.326-2.488-5.494-3.038-8.082-2.79-1.294 0.1243-2.472 0.4341-3.452 0.818-0.9797 0.3839-1.73 0.761-2.359 1.419-0.4693 0.4903-0.6821 1.365-0.5674 1.95 0.1147 0.5847 0.3614 0.9488 0.5939 1.277 0.4649 0.6559 0.9958 1.186 1.415 1.72 0.4196 0.5345 0.681 1.03 0.7349 1.34 0.05398 0.3098 0.07785 0.4962-0.4119 1.057-0.5435 0.6222-0.9055 0.7626-1.25 0.7989-0.3448 0.0362-0.812-0.0659-1.446-0.4322-1.268-0.7326-2.937-2.483-4.601-4.416-1.61-1.87-2.553-3.435-2.821-4.379-0.1339-0.4717-0.1123-0.7464-0.06247-0.9087 0.04985-0.1623 0.1184-0.2898 0.4186-0.4952 0.6237-0.4269 1.441-0.5211 2.36-0.2754 0.919 0.2457 1.859 0.8581 2.447 1.605 0.4862 0.6169 1.287 0.9729 1.982 1.009 0.6955 0.03592 1.306-0.1494 1.872-0.416 1.131-0.5331 2.147-1.441 3.005-2.606 1.717-2.331 2.741-6.001 0.6637-9.286l-2.685 1.698c1.268 2.005 0.6418 4.106-0.5365 5.705-0.5892 0.7998-1.331 1.396-1.801 1.617-0.1705 0.08039-0.2135 0.0776-0.2576 0.08556-1.026-1.189-2.369-2.075-3.871-2.477-1.612-0.431-3.453-0.3176-4.972 0.7216-0.7709 0.5276-1.389 1.295-1.661 2.184-0.2726 0.8883-0.2089 1.82 0.04345 2.708 0.5046 1.777 1.713 3.543 3.47 5.582 1.703 1.977 3.415 3.935 5.42 5.093 1.003 0.5791 2.144 0.9698 3.367 0.8411 1.222-0.1287 2.385-0.8108 3.308-1.868 0.9771-1.119 1.354-2.52 1.15-3.691-0.2039-1.17-0.8102-2.047-1.365-2.754-0.4032-0.5137-0.6896-0.8352-0.962-1.16 0.2111-0.1223 0.2267-0.1671 0.5387-0.2894 0.7084-0.2776 1.629-0.5216 2.598-0.6146 1.936-0.186 3.943 0.1779 5.458 1.798z" color="#000000" style="paint-order:stroke markers fill"/>
    <path d="m32.38 68.79c0.7505-3.322-0.575-6.252-2.235-8.252-0.8301-1-1.749-1.801-2.617-2.395-0.8683-0.5945-1.602-1.003-2.5-1.154-0.6693-0.1125-1.512 0.2031-1.931 0.6266-0.4191 0.4235-0.5816 0.8322-0.7221 1.209-0.2811 0.7532-0.4208 1.49-0.627 2.138-0.2063 0.6475-0.4689 1.142-0.6948 1.361-0.2259 0.2188-0.3667 0.3433-1.106 0.2534-0.8201-0.0998-1.14-0.3203-1.364-0.585-0.2238-0.2648-0.4019-0.7086-0.4554-1.439-0.107-1.461 0.4027-3.825 1.066-6.288 0.6416-2.383 1.406-4.043 2.036-4.794 0.3148-0.3759 0.5542-0.5124 0.7164-0.5625 0.1623-0.05002 0.3063-0.06494 0.6449 0.06781 0.7036 0.2759 1.241 0.8986 1.554 1.797 0.3133 0.8982 0.3353 2.02 0.04864 2.926-0.237 0.7489-0.08129 1.611 0.2799 2.207 0.3612 0.5954 0.8577 0.9963 1.396 1.314 1.077 0.6361 2.398 0.9657 3.845 1.021 2.893 0.1098 6.504-1.106 8.054-4.671l-2.913-1.266c-0.9458 2.176-3.035 2.839-5.02 2.763-0.9927-0.0377-1.903-0.3165-2.35-0.5805-0.1623-0.09586-0.1842-0.133-0.2155-0.1649 0.4061-1.517 0.3849-3.126-0.1274-4.594-0.5495-1.575-1.679-3.035-3.391-3.706-0.8697-0.341-1.852-0.4206-2.74-0.1467-0.8879 0.2739-1.623 0.8502-2.216 1.558-1.186 1.416-1.967 3.409-2.667 6.008-0.6783 2.52-1.335 5.036-1.165 7.345 0.08461 1.155 0.4032 2.319 1.197 3.257 0.7935 0.9387 2.011 1.517 3.404 1.686 1.474 0.1794 2.846-0.2971 3.699-1.124 0.8533-0.8265 1.238-1.821 1.511-2.677 0.1982-0.6223 0.3031-1.04 0.4182-1.447 0.2198 0.1058 0.2657 0.09358 0.5421 0.2828 0.6278 0.4299 1.347 1.054 1.968 1.803 1.242 1.497 2.07 3.362 1.581 5.524z" color="#000000" style="paint-order:stroke markers fill"/>
    <path d="m44.64 41.15c3.085-1.442 4.588-4.285 5.152-6.823 0.282-1.269 0.3518-2.485 0.2897-3.536-0.06212-1.05-0.1886-1.881-0.6193-2.683-0.3212-0.5979-1.087-1.071-1.679-1.142-0.5915-0.07172-1.014 0.05027-1.398 0.1699-0.7675 0.2393-1.435 0.5804-2.074 0.814-0.6381 0.2337-1.19 0.3291-1.501 0.2846-0.3113-0.04448-0.496-0.07944-0.8776-0.7186-0.4236-0.7093-0.4451-1.097-0.373-1.436 0.07216-0.3391 0.3138-0.7518 0.8583-1.242 1.089-0.9797 3.27-2.025 5.622-3.01 2.277-0.9531 4.057-1.365 5.036-1.328 0.49 0.01852 0.7445 0.124 0.8835 0.2216 0.139 0.09761 0.239 0.2023 0.3415 0.5512 0.213 0.7251 0.05 1.531-0.4679 2.329-0.5179 0.7979-1.391 1.503-2.283 1.831-0.7371 0.2716-1.323 0.9229-1.572 1.573-0.2493 0.6503-0.2619 1.288-0.1833 1.909 0.1571 1.241 0.7061 2.487 1.549 3.664 1.685 2.353 4.859 4.462 8.626 3.503l-0.7844-3.078c-2.299 0.5855-4.103-0.6595-5.26-2.275-0.5784-0.8076-0.9158-1.698-0.981-2.213-0.0237-0.187-0.0078-0.227-0.0017-0.2714 1.448-0.6085 2.706-1.611 3.553-2.915 0.9084-1.4 1.37-3.186 0.8514-4.951-0.2632-0.8963-0.8023-1.721-1.563-2.255-0.7605-0.5339-1.666-0.7614-2.589-0.7963-1.846-0.06968-3.899 0.5337-6.382 1.573-2.407 1.008-4.798 2.03-6.519 3.579-0.8607 0.7743-1.585 1.739-1.841 2.941-0.2557 1.202 0.03344 2.519 0.753 3.724 0.7615 1.275 1.978 2.067 3.154 2.235 1.176 0.168 2.198-0.1372 3.041-0.4462 0.6132-0.2246 1.008-0.3975 1.4-0.5563 0.051 0.2385 0.08883 0.2673 0.1086 0.6017 0.04493 0.7596-0.0079 1.711-0.2189 2.66-0.422 1.899-1.389 3.695-3.398 4.634z" color="#000000" style="paint-order:stroke markers fill"/>
    <path d="m77.48 35.18c3.08 1.452 6.228 0.7926 8.54-0.395 1.156-0.5938 2.137-1.317 2.905-2.036 0.7684-0.7189 1.326-1.347 1.668-2.19 0.2548-0.6291 0.1293-1.52-0.1934-2.021-0.3227-0.5009-0.6865-0.748-1.024-0.9668-0.6744-0.4376-1.364-0.7335-1.951-1.075-0.5874-0.3416-1.013-0.7051-1.178-0.973-0.1647-0.2679-0.2557-0.4323-0.0079-1.134 0.275-0.779 0.5595-1.043 0.8665-1.204 0.307-0.1612 0.7788-0.2389 1.504-0.1329 1.449 0.2119 3.647 1.222 5.908 2.402 2.188 1.143 3.642 2.248 4.24 3.026 0.2988 0.3888 0.3802 0.652 0.3939 0.8213 0.0137 0.1693-3e-3 0.3131-0.2059 0.6149-0.4217 0.6272-1.146 1.017-2.091 1.128-0.9447 0.1113-2.045-0.1101-2.867-0.5863-0.6798-0.3935-1.555-0.4283-2.215-0.2047-0.6595 0.2237-1.158 0.6216-1.585 1.078-0.8542 0.9136-1.462 2.132-1.829 3.532-0.7337 2.8-0.3286 6.589 2.816 8.874l1.867-2.57c-1.919-1.395-2.114-3.578-1.61-5.499 0.2518-0.9609 0.7211-1.789 1.076-2.169 0.1287-0.1377 0.1697-0.151 0.2077-0.1747 1.393 0.7251 2.968 1.053 4.513 0.8706 1.657-0.1953 3.326-0.9814 4.353-2.508 0.5213-0.7752 0.8118-1.717 0.7367-2.643-0.0751-0.9262-0.4786-1.768-1.041-2.5-1.126-1.465-2.902-2.659-5.287-3.905-2.313-1.208-4.627-2.394-6.918-2.729-1.146-0.1675-2.351-0.1086-3.439 0.4629-1.088 0.5714-1.916 1.635-2.384 2.958-0.4945 1.4-0.3263 2.842 0.2958 3.854 0.6221 1.012 1.51 1.603 2.286 2.055 0.5646 0.3283 0.9495 0.5212 1.323 0.7218-0.1509 0.1916-0.1489 0.2391-0.3935 0.468-0.5556 0.5198-1.321 1.087-2.187 1.531-1.731 0.8886-3.73 1.292-5.736 0.3468z" color="#000000" fill-rule="evenodd" style="paint-order:stroke markers fill"/>
    <path d="m97.47 52.28c1.187 3.192 3.899 4.921 6.383 5.688 1.242 0.3839 2.449 0.552 3.501 0.5752 1.052 0.02319 1.89-0.03561 2.724-0.3999 0.622-0.2717 1.155-0.9967 1.275-1.58 0.1195-0.5837 0.032-1.015-0.0561-1.407-0.1763-0.7844-0.4621-1.478-0.6433-2.133-0.1812-0.6549-0.2316-1.213-0.162-1.519 0.0696-0.3067 0.1194-0.4879 0.7873-0.8165 0.7413-0.3647 1.129-0.3548 1.462-0.2554 0.3322 0.09941 0.7239 0.3737 1.168 0.9561 0.8882 1.165 1.754 3.423 2.545 5.848 0.7655 2.346 1.032 4.154 0.9161 5.128-0.0581 0.4868-0.184 0.732-0.2925 0.8626-0.1086 0.1306-0.221 0.2218-0.5771 0.2957-0.74 0.1536-1.53-0.07424-2.284-0.6551-0.7533-0.5809-1.385-1.508-1.64-2.424-0.2109-0.7566-0.8126-1.394-1.441-1.695-0.628-0.3011-1.263-0.3654-1.888-0.3373-1.249 0.05604-2.536 0.5023-3.777 1.247-2.482 1.489-4.842 4.482-4.191 8.314l3.131-0.5324c-0.3973-2.339 0.9897-4.036 2.693-5.058 0.8518-0.511 1.766-0.7752 2.285-0.7985 0.1883-0.0085 0.2269 0.01062 0.2706 0.02028 0.4892 1.492 1.386 2.828 2.618 3.777 1.321 1.019 3.064 1.624 4.866 1.25 0.9146-0.1899 1.781-0.6602 2.375-1.375 0.5938-0.7147 0.8939-1.599 1.003-2.516 0.2191-1.834-0.216-3.93-1.051-6.488-0.8092-2.481-1.635-4.946-3.039-6.788-0.702-0.9206-1.605-1.721-2.783-2.073-1.178-0.3523-2.513-0.1708-3.772 0.4488-1.333 0.6557-2.22 1.804-2.483 2.963-0.2628 1.159-0.0414 2.202 0.1983 3.068 0.1742 0.6294 0.3146 1.036 0.441 1.441-0.2419 0.03151-0.2736 0.06688-0.6086 0.05948-0.7607-0.01676-1.705-0.1465-2.634-0.4338-1.859-0.5745-3.57-1.684-4.344-3.762z" color="#000000" style="paint-order:stroke markers fill"/>
   </g>
   <path d="m73.63 35.85c-0.5217-0.159-1.06-0.2601-1.597-0.3327-2.456-0.3318-4.91-0.02539-6.398 0.465-2.876 0.9479-5.4 4.169-4.667 8.014-0.07524 0.2376-0.2191 0.614-0.4666 0.9945-0.4071 0.6262-0.8688 1.116-1.972 1.138l0.06461 3.175c1.648-0.03396 2.924-0.7711 3.793-1.633 0.3509 0.5411 0.7624 1.055 1.234 1.526 1.382 1.382 3.344 2.387 5.634 2.338 0.7104-0.01515 1.369-0.168 1.975-0.4244 0.04917 0.1754 0.1064 0.3425 0.1728 0.5037 0.4134 1.003 1.074 1.467 1.189 1.606l2.448-2.023c-0.5296-0.6411-0.621-0.5966-0.7017-0.7923-0.06414-0.1556-0.1783-0.6589-0.1307-1.777 0.2599-0.3515 0.4985-0.7196 0.7142-1.096 1.204-2.103 1.894-4.624 2.164-6.936 0.1786-1.528-0.5191-2.992-1.557-3.791-0.5192-0.3998-1.086-0.6804-1.676-0.8817-0.07378-0.02519-0.1483-0.04923-0.2228-0.07193zm-1.084 3.006c0.468 0.1333 0.8362 0.3013 1.045 0.4624 0.3347 0.2578 0.4125 0.3112 0.3429 0.9067-0.2261 1.935-0.8613 4.143-1.768 5.728-0.3167 0.5531-0.6451 1.01-0.9838 1.372l-0.06181-0.0062c-0.0027 0.02671-0.0051 0.05275-0.0076 0.07919-0.6109 0.627-1.255 0.9467-1.925 0.961-1.349 0.02877-2.434-0.5189-3.323-1.408-0.8893-0.889-1.509-2.135-1.709-3.199l-0.0073-0.04916-0.01249-0.04638c-0.5846-2.307 1.141-4.213 2.493-4.659 0.6814-0.2246 3.164-0.5801 4.979-0.3349 0.3403 0.04597 0.6573 0.1132 0.9381 0.1932z" color="#000000" style="-inkscape-stroke:none"/>
   <path d="m46.58 52.98c-0.3938 0.3295-0.7454 0.6922-1.072 1.065-1.493 1.703-2.431 3.636-2.735 4.919-0.5885 2.48 0.9667 5.525 4.659 6.379 0.1691 0.1423 0.4249 0.386 0.6335 0.708 0.3432 0.53 0.5411 1.051 0.01959 1.878l2.785 1.107c0.7787-1.236 0.7658-2.452 0.4445-3.41 0.6413-0.06373 1.288-0.1825 1.929-0.3612 1.876-0.5237 3.71-1.615 4.791-3.332 0.3353-0.5329 0.5257-1.077 0.601-1.621 0.1762 0.02729 0.3492 0.0456 0.5215 0.05489 1.072 0.05787 1.799-0.2641 1.976-0.2988l-0.5532-2.553c-0.8157 0.1601-0.8219 0.2441-1.031 0.2328-0.1664-9e-3 -0.6588-0.1073-1.605-0.5492-0.1773-0.3208-0.3795-0.6318-0.6004-0.9289-1.233-1.659-3.081-3.088-4.953-4.129-1.237-0.6881-2.849-0.7026-4.051-0.2225-0.6013 0.2401-1.123 0.5588-1.587 0.9239-0.05803 0.04562-0.1154 0.09219-0.1717 0.1393zm2.075 1.898c0.3451-0.299 0.6714-0.5112 0.9137-0.6079 0.3877-0.1548 0.4722-0.1931 0.9544 0.07516 1.567 0.8714 3.17 2.146 4.099 3.396 0.3243 0.4362 0.5593 0.8462 0.7071 1.229l-0.03573 0.04363c0.0219 0.01164 0.04325 0.02294 0.06491 0.03448 0.244 0.6816 0.2052 1.276-0.1109 1.778-0.6365 1.012-1.644 1.618-2.851 1.955-1.207 0.3369-2.592 0.344-3.612 0.1059l-0.0462-0.01245-0.04634-0.0076c-2.288-0.4051-3.094-2.379-2.817-3.545 0.1395-0.5876 1.049-2.56 2.152-3.818 0.2068-0.2359 0.4206-0.4468 0.6277-0.6262z" color="#000000" stroke-width=".9067" style="-inkscape-stroke:none"/>
   <path d="m48.58 90.52c0.474 0.2698 0.9767 0.4866 1.485 0.6754 2.324 0.8633 4.785 1.103 6.344 0.9518 3.014-0.2931 6.184-2.881 6.314-6.793 0.1256-0.2153 0.3486-0.5508 0.6736-0.8677 0.5347-0.5214 1.093-0.8974 2.174-0.6772l0.6344-3.111c-1.615-0.3288-3.022 0.1098-4.059 0.7599-0.2234-0.6049-0.5121-1.196-0.8687-1.76-1.045-1.652-2.738-3.063-4.982-3.518-0.6964-0.1413-1.372-0.1368-2.02-0.01991-0.0094-0.182-0.02852-0.3575-0.0579-0.5293-0.1829-1.069-0.7258-1.667-0.8073-1.828l-2.833 1.436c0.3759 0.7418 0.4748 0.7184 0.5105 0.9271 0.02839 0.1659 0.02917 0.682-0.2629 1.762-0.3308 0.2858-0.6444 0.5926-0.9376 0.9128-1.636 1.787-2.864 4.095-3.635 6.291-0.5098 1.451-0.1508 3.033 0.6865 4.041 0.4187 0.504 0.91 0.9024 1.442 1.228 0.06647 0.04075 0.1339 0.08056 0.2016 0.1191zm1.718-2.695c-0.4273-0.2329-0.7496-0.4777-0.9183-0.6808-0.2699-0.325-0.3341-0.3942-0.1353-0.9599 0.6456-1.838 1.75-3.853 2.983-5.199 0.4304-0.4701 0.8512-0.8436 1.261-1.122l0.05895 0.01963c0.0085-0.02547 0.01653-0.05034 0.02485-0.07558 0.7337-0.4775 1.433-0.6478 2.089-0.5146 1.322 0.2682 2.26 1.041 2.933 2.104 0.6723 1.063 1.003 2.415 0.9649 3.496l-0.0036 0.04956 2e-3 0.048c0.06342 2.38-2.038 3.86-3.456 3.998-0.7141 0.06945-3.215-0.1293-4.931-0.7671-0.3219-0.1196-0.6163-0.2549-0.8727-0.3946z" color="#000000" style="-inkscape-stroke:none"/>
   <path d="m86.49 77.14c-0.9348-0.08738-1.861-0.0059-2.752 0.2637-1.782 0.5392-3.34 1.757-4.734 3.461-0.6269 0.7662-0.7154 1.507-0.7734 2.334s0.01458 1.738 0.2363 2.678c0.4435 1.879 1.525 3.978 3.709 5.006l0.01367 0.0059 0.01172 0.0059c1.48 0.6661 3.232 0.6508 5.057 0.2559 1.825-0.395 3.726-1.241 4.992-2.887 2.57-3.341 1.157-8.556-2.957-10.37-0.925-0.4081-1.868-0.6646-2.803-0.752zm-0.2793 3.146c0.5473 0.05294 1.136 0.2163 1.801 0.5098 2.247 0.9914 2.892 4.008 1.721 5.531-0.605 0.7865-1.838 1.436-3.146 1.719-1.303 0.282-2.671 0.128-3.068-0.04687-0.989-0.4733-1.665-1.601-1.961-2.854-0.1485-0.6294-0.1927-1.261-0.1602-1.725 0.03253-0.4633 0.2392-0.7605 0.06445-0.5469 1.131-1.383 2.195-2.129 3.195-2.432 0.5003-0.1514 1.007-0.2092 1.555-0.1562z" color="#000000" style="-inkscape-stroke:none"/>
  </g>
  <path transform="scale(.2646)" d="m441.8 188.4c-0.808-0.00789-1.646 0.05966-2.504 0.2109l-216.8 38.23c-6.864 1.21-12.39 7.234-12.39 13.51v218.9c0 6.274 5.527 10.35 12.39 9.139l72.4-12.77c4.057-6.671 4.852-14.46 3.477-21.74-0.0916-0.4848-0.1941-0.9643-0.3066-1.439 21.91-2.904 40.46-9.928 56.08-19.67 0.4076 0.5253 0.8356 1.042 1.285 1.551 3.818 4.317 9.001 7.648 15.3 8.754 6.056 1.063 11.7-0.1733 16.33-2.133 8.916-3.776 15.92-10.35 23.18-18.37 6.659-7.352 14.11-15.3 18.55-25.81 2.277-5.388 3.904-12.32 2.162-19.8-1.807-7.759-6.866-13.94-13.11-18.15-0.8381-0.5661-1.696-1.082-2.566-1.557 12.51-29.93 16.49-59.11 15.91-74.98 4.326 1.037 8.997 1.244 13.81 0.2441 2.296-0.4767 4.535-1.311 6.691-2.369v-62.45c0-5.49-4.231-9.296-9.887-9.352z" color="#000000" fill-opacity=".4567" stroke-linejoin="round" stroke-width="3.78" style="-inkscape-stroke:none;paint-order:stroke markers fill"/>
  <rect transform="matrix(.9848 -.1736 0 1 0 0)" x="60.64" y="75.06" width="63.04" height="62.09" rx="3.233" ry="2.91" fill="#002e27" stroke="#002e27" stroke-linecap="square" stroke-linejoin="bevel" stroke-width="4.09" style="paint-order:markers fill stroke"/>
  <g transform="matrix(.2585 -.04558 0 .2585 60.77 65.4)">
   <g transform="matrix(1.293 0 0 1.293 -34.04 -34.04)" fill="#fff">
    <path d="m32 32h8v8h-8zm8 0h8v8h-8zm8 0h8v8h-8zm8 0h8v8h-8zm8 0h8v8h-8zm8 0h8v8h-8zm8 0h8v8h-8zm24 0h8v8h-8zm24 0h8v8h-8zm16 0h8v8h-8zm8 0h8v8h-8zm8 0h8v8h-8zm8 0h8v8h-8zm8 0h8v8h-8zm8 0h8v8h-8zm8 0h8v8h-8zm-160 8h8v8h-8zm48 0h8v8h-8zm16 0h8v8h-8zm24 0h8v8h-8zm24 0h8v8h-8zm48 0h8v8h-8zm-160 8h8v8h-8zm16 0h8v8h-8zm8 0h8v8h-8zm8 0h8v8h-8zm16 0h8v8h-8zm24 0h8v8h-8zm40 0h8v8h-8zm16 0h8v8h-8zm8 0h8v8h-8zm8 0h8v8h-8zm16 0h8v8h-8zm-160 8h8v8h-8zm16 0h8v8h-8zm8 0h8v8h-8zm8 0h8v8h-8zm16 0h8v8h-8zm16 0h8v8h-8zm24 0h8v8h-8zm24 0h8v8h-8zm16 0h8v8h-8zm8 0h8v8h-8zm8 0h8v8h-8zm16 0h8v8h-8zm-160 8h8v8h-8zm16 0h8v8h-8zm8 0h8v8h-8zm8 0h8v8h-8zm16 0h8v8h-8zm32 0h8v8h-8zm8 0h8v8h-8zm8 0h8v8h-8zm16 0h8v8h-8zm16 0h8v8h-8zm8 0h8v8h-8zm8 0h8v8h-8zm16 0h8v8h-8zm-160 8h8v8h-8zm48 0h8v8h-8zm16 0h8v8h-8zm8 0h8v8h-8zm8 0h8v8h-8zm16 0h8v8h-8zm16 0h8v8h-8zm48 0h8v8h-8zm-160 8h8v8h-8zm8 0h8v8h-8zm8 0h8v8h-8zm8 0h8v8h-8zm8 0h8v8h-8zm8 0h8v8h-8zm8 0h8v8h-8zm16 0h8v8h-8zm16 0h8v8h-8zm16 0h8v8h-8zm16 0h8v8h-8zm8 0h8v8h-8zm8 0h8v8h-8zm8 0h8v8h-8zm8 0h8v8h-8zm8 0h8v8h-8zm8 0h8v8h-8zm-80 8h8v8h-8zm8 0h8v8h-8zm8 0h8v8h-8zm-96 8h8v8h-8zm8 0h8v8h-8zm8 0h8v8h-8zm8 0h8v8h-8zm8 0h8v8h-8zm16 0h8v8h-8zm8 0h8v8h-8zm8 0h8v8h-8zm8 0h8v8h-8zm24 0h8v8h-8zm8 0h8v8h-8zm16 0h8v8h-8zm16 0h8v8h-8zm16 0h8v8h-8zm-152 8h8v8h-8zm8 0h8v8h-8zm8 0h8v8h-8zm16 0h8v8h-8zm8 0h8v8h-8zm16 0h8v8h-8zm8 0h8v8h-8zm8 0h8v8h-8zm24 0h8v8h-8zm24 0h8v8h-8zm24 0h8v8h-8zm8 0h8v8h-8zm8 0h8v8h-8zm-160 8h8v8h-8zm8 0h8v8h-8zm8 0h8v8h-8zm32 0h8v8h-8zm24 0h8v8h-8zm8 0h8v8h-8zm8 0h8v8h-8zm16 0h8v8h-8zm24 0h8v8h-8zm16 0h8v8h-8zm-128 8h8v8h-8zm8 0h8v8h-8zm8 0h8v8h-8zm32 0h8v8h-8zm8 0h8v8h-8zm8 0h8v8h-8zm40 0h8v8h-8zm8 0h8v8h-8zm16 0h8v8h-8zm16 0h8v8h-8zm-152 8h8v8h-8zm16 0h8v8h-8zm8 0h8v8h-8zm16 0h8v8h-8zm16 0h8v8h-8zm8 0h8v8h-8zm8 0h8v8h-8zm8 0h8v8h-8zm16 0h8v8h-8zm24 0h8v8h-8zm8 0h8v8h-8zm-72 8h8v8h-8zm8 0h8v8h-8zm8 0h8v8h-8zm8 0h8v8h-8zm8 0h8v8h-8zm8 0h8v8h-8zm8 0h8v8h-8zm32 0h8v8h-8zm8 0h8v8h-8zm8 0h8v8h-8zm-160 8h8v8h-8zm8 0h8v8h-8zm8 0h8v8h-8zm8 0h8v8h-8zm8 0h8v8h-8zm8 0h8v8h-8zm8 0h8v8h-8zm16 0h8v8h-8zm32 0h8v8h-8zm16 0h8v8h-8zm8 0h8v8h-8zm-120 8h8v8h-8zm48 0h8v8h-8zm32 0h8v8h-8zm8 0h8v8h-8zm8 0h8v8h-8zm8 0h8v8h-8zm8 0h8v8h-8zm32 0h8v8h-8zm-144 8h8v8h-8zm16 0h8v8h-8zm8 0h8v8h-8zm8 0h8v8h-8zm16 0h8v8h-8zm16 0h8v8h-8zm8 0h8v8h-8zm8 0h8v8h-8zm16 0h8v8h-8zm24 0h8v8h-8zm16 0h8v8h-8zm16 0h8v8h-8zm-152 8h8v8h-8zm16 0h8v8h-8zm8 0h8v8h-8zm8 0h8v8h-8zm16 0h8v8h-8zm16 0h8v8h-8zm8 0h8v8h-8zm8 0h8v8h-8zm16 0h8v8h-8zm24 0h8v8h-8zm24 0h8v8h-8zm-144 8h8v8h-8zm16 0h8v8h-8zm8 0h8v8h-8zm8 0h8v8h-8zm16 0h8v8h-8zm16 0h8v8h-8zm24 0h8v8h-8zm16 0h8v8h-8zm24 0h8v8h-8zm8 0h8v8h-8zm8 0h8v8h-8zm-144 8h8v8h-8zm48 0h8v8h-8zm16 0h8v8h-8zm56 0h8v8h-8zm8 0h8v8h-8zm16 0h8v8h-8zm-144 8h8v8h-8zm8 0h8v8h-8zm8 0h8v8h-8zm8 0h8v8h-8zm8 0h8v8h-8zm8 0h8v8h-8zm8 0h8v8h-8zm16 0h8v8h-8zm8 0h8v8h-8zm8 0h8v8h-8zm8 0h8v8h-8zm16 0h8v8h-8zm24 0h8v8h-8zm16 0h8v8h-8zm8 0h8v8h-8z" fill="#fff"/>
   </g>
  </g>
 </g>
</svg>
